<?xml version="1.0" encoding="UTF-8"?>
<svg id="a" data-name="Layer 1" xmlns="http://www.w3.org/2000/svg" viewBox="0 0 620.88 936.98">
  <rect x="21.16" y="21.42" width="578.56" height="894.14" rx="145.57" ry="145.57" fill="#fbc27f"/>
  <g>
    <g>
      <path d="M240.05,171.99v178.16h-34.75v-74.83h-10.4v74.83h-34.75v-178.16h34.75v63.71h10.4v-63.71h34.75Z" fill="#f84e05"/>
      <path d="M328.15,171.99v119.06c0,13.5-.33,22.98-.99,28.45-.66,5.47-2.61,11.08-5.86,16.84-3.25,5.76-7.52,10.12-12.83,13.1-5.31,2.97-11.57,4.46-18.78,4.46-7.98,0-15.02-1.76-21.13-5.28-6.11-3.52-10.67-8.1-13.7-13.76-3.03-5.65-4.82-11.61-5.36-17.88-.55-6.27-.83-19.46-.83-39.56v-105.42h34.75v133.59c0,7.78.32,12.75.95,14.91.63,2.16,1.91,3.25,3.84,3.25,2.2,0,3.62-1.19,4.25-3.58.63-2.38.95-8.01.95-16.89v-131.28h34.75Z" fill="#f84e05"/>
      <path d="M371.6,171.99v178.16h-34.75v-178.16h34.75Z" fill="#f84e05"/>
      <path d="M455.12,225.91h-32.27v-13.21c0-6.16-.41-10.09-1.24-11.77-.83-1.69-2.2-2.53-4.13-2.53-2.09,0-3.67,1.14-4.74,3.41-1.07,2.28-1.61,5.73-1.61,10.35,0,5.95.6,10.42,1.81,13.43,1.15,3.01,4.42,6.64,9.82,10.89,15.47,12.24,25.21,22.29,29.23,30.13,4.02,7.85,6.02,20.51,6.02,37.96,0,12.69-1.11,22.05-3.34,28.06-2.23,6.02-6.53,11.06-12.92,15.13s-13.81,6.11-22.28,6.11c-9.3,0-17.24-2.35-23.81-7.04-6.57-4.69-10.88-10.67-12.92-17.94-2.04-7.26-3.05-17.57-3.05-30.92v-11.66h32.27v21.68c0,6.68.45,10.97,1.36,12.88.91,1.91,2.52,2.86,4.83,2.86s4.03-1.21,5.16-3.63c1.13-2.42,1.69-6.01,1.69-10.78,0-10.49-1.07-17.35-3.22-20.58-2.2-3.23-7.62-8.62-16.26-16.18-8.64-7.63-14.36-13.17-17.17-16.62-2.81-3.45-5.13-8.21-6.97-14.31-1.84-6.09-2.76-13.86-2.76-23.33,0-13.64,1.31-23.62,3.92-29.93,2.61-6.31,6.84-11.24,12.67-14.8,5.83-3.56,12.88-5.34,21.13-5.34,9.02,0,16.71,1.94,23.07,5.83,6.35,3.89,10.56,8.79,12.63,14.69,2.06,5.91,3.1,15.94,3.1,30.1v7.04Z" fill="#f84e05"/>
      <path d="M160.17,379.41h24.59c16.4,0,27.5.84,33.3,2.53,5.8,1.69,10.54,6,14.19,12.93,3.66,6.93,5.49,17.99,5.49,33.18,0,13.87-1.29,23.18-3.88,27.95-2.59,4.77-7.68,7.63-15.27,8.58,6.88,2.27,11.5,5.32,13.86,9.13,2.37,3.82,3.84,7.32,4.42,10.51.58,3.19.87,11.98.87,26.35v46.99h-32.27v-59.2c0-9.54-.56-15.44-1.69-17.72-1.13-2.27-4.09-3.41-8.87-3.41v80.33h-34.75v-178.16ZM194.91,409.89v39.61c3.91,0,6.64-.72,8.21-2.15,1.57-1.43,2.35-6.07,2.35-13.92v-9.79c0-5.65-.76-9.35-2.27-11.11-1.51-1.76-4.28-2.64-8.29-2.64Z" fill="#f84e05"/>
      <path d="M310.16,379.41l19.87,178.16h-35.51l-1.86-32.02h-12.43l-2.09,32.02h-35.92l17.72-178.16h50.22ZM291.75,493.96c-1.76-20.18-3.52-45.12-5.29-74.83-3.54,34.11-5.76,59.06-6.67,74.83h11.96Z" fill="#f84e05"/>
      <path d="M399.05,379.41l19.87,178.16h-35.51l-1.86-32.02h-12.43l-2.09,32.02h-35.92l17.72-178.16h50.22ZM380.64,493.96c-1.76-20.18-3.52-45.12-5.29-74.83-3.54,34.11-5.76,59.06-6.67,74.83h11.96Z" fill="#f84e05"/>
      <path d="M423.5,379.41h26c16.78,0,28.13,1.03,34.04,3.08,5.91,2.05,10.41,5.43,13.49,10.12,3.08,4.7,5.01,9.92,5.78,15.68.77,5.76,1.15,17.08,1.15,33.95v62.39c0,15.99-.56,26.68-1.69,32.08-1.13,5.39-3.1,9.61-5.9,12.65-2.81,3.04-6.27,5.17-10.4,6.38-4.13,1.21-10.34,1.82-18.65,1.82h-43.82v-178.16ZM458.25,409.89v117.19c5.01,0,8.09-1.34,9.24-4.02,1.16-2.68,1.73-9.96,1.73-21.84v-69.22c0-8.07-.19-13.24-.58-15.52-.39-2.27-1.27-3.94-2.64-5.01-1.38-1.06-3.96-1.6-7.76-1.6Z" fill="#f84e05"/>
      <path d="M241.29,664.41h-34.75v-30.96c0-9-.37-14.62-1.11-16.86-.74-2.23-2.38-3.35-4.91-3.35-2.86,0-4.68,1.36-5.45,4.07-.77,2.72-1.16,8.58-1.16,17.61v82.75c0,8.66.38,14.31,1.16,16.95.77,2.64,2.5,3.96,5.2,3.96s4.28-1.32,5.08-3.97c.8-2.65,1.2-8.86,1.2-18.64v-22.39h34.75v6.94c0,18.44-.98,31.52-2.93,39.23-1.95,7.72-6.27,14.47-12.96,20.28-6.68,5.8-14.93,8.7-24.72,8.7s-18.57-2.46-25.17-7.37c-6.6-4.91-10.98-11.72-13.12-20.41s-3.22-21.77-3.22-39.23v-52.05c0-12.84.33-22.47.99-28.89.66-6.42,2.63-12.6,5.9-18.54,3.27-5.94,7.81-10.62,13.62-14.03,5.8-3.41,12.48-5.12,20.01-5.12,10.23,0,18.68,2.64,25.34,7.91,6.66,5.28,11.03,11.85,13.12,19.73,2.09,7.87,3.14,20.13,3.14,36.76v16.92Z" fill="#f84e05"/>
      <path d="M328.77,691.15c0,17.9-.32,30.57-.95,38.02-.63,7.45-2.61,14.25-5.94,20.41-3.33,6.16-7.83,10.89-13.49,14.2-5.67,3.3-12.27,4.95-19.81,4.95s-13.58-1.56-19.27-4.68c-5.69-3.12-10.28-7.79-13.74-14.03-3.47-6.23-5.53-13.02-6.19-20.36-.66-7.34-.99-20.17-.99-38.51v-30.48c0-17.9.32-30.57.95-38.02.63-7.44,2.61-14.25,5.94-20.41,3.33-6.16,7.83-10.89,13.49-14.2,5.67-3.3,12.27-4.95,19.81-4.95,7.15,0,13.58,1.56,19.27,4.68,5.69,3.12,10.28,7.8,13.74,14.03,3.47,6.24,5.53,13.02,6.19,20.36.66,7.34.99,20.18.99,38.51v30.48ZM294.03,632.61c0-8.29-.34-13.59-1.03-15.9-.69-2.31-2.1-3.47-4.25-3.47-1.82,0-3.21.94-4.17,2.81-.96,1.87-1.44,7.39-1.44,16.56v83.19c0,10.34.32,16.73.95,19.15.63,2.42,2.1,3.63,4.42,3.63s3.88-1.39,4.54-4.18c.66-2.79.99-9.43.99-19.92v-81.87Z" fill="#f84e05"/>
      <path d="M444.19,586.83v178.16h-30.37l-.04-120.27-12.09,120.27h-21.54l-12.75-117.52-.04,117.52h-30.37v-178.16h44.96c1.33,10.71,2.71,23.33,4.12,37.87l4.93,45.32,7.98-83.19h45.21Z" fill="#f84e05"/>
    </g>
    <path d="M150.47,728.89v36.31h-33.56v-36.31h33.56Z" fill="#f84e05"/>
    <path d="M495.68,621.23c-4.27,4.29-9.44,6.44-15.5,6.44s-11.22-2.15-15.47-6.44c-4.23-4.27-6.35-9.45-6.35-15.53s2.14-11.17,6.41-15.44,9.39-6.38,15.41-6.38,11.23,2.13,15.5,6.38c4.27,4.25,6.41,9.4,6.41,15.44s-2.14,11.24-6.41,15.53ZM466.89,592.41c-3.66,3.68-5.48,8.12-5.48,13.32s1.82,9.72,5.45,13.41c3.66,3.7,8.1,5.54,13.32,5.54s9.67-1.85,13.32-5.54c3.66-3.7,5.48-8.17,5.48-13.41s-1.83-9.65-5.48-13.32c-3.68-3.7-8.12-5.54-13.32-5.54s-9.62,1.85-13.29,5.54ZM479.76,593.63c2.98,0,5.17.29,6.56.87,2.48,1.03,3.73,3.06,3.73,6.09,0,2.15-.78,3.73-2.34,4.74-.83.54-1.99.92-3.47,1.16,1.88.3,3.25,1.08,4.12,2.35.87,1.27,1.31,2.51,1.31,3.72v1.76c0,.56.02,1.15.06,1.79.04.64.11,1.05.21,1.25l.15.3h-3.96c-.02-.08-.04-.16-.06-.24-.02-.08-.04-.17-.06-.27l-.09-.77v-1.9c0-2.77-.76-4.6-2.27-5.5-.89-.51-2.46-.77-4.71-.77h-3.34v9.45h-4.23v-24.02h8.4ZM484.33,597.41c-1.07-.6-2.78-.89-5.13-.89h-3.62v8.7h3.83c1.79,0,3.14-.18,4.04-.54,1.65-.66,2.48-1.91,2.48-3.76,0-1.75-.53-2.92-1.6-3.52Z" fill="#f84e05"/>
  </g>
</svg>